<svg viewBox="0 0 24 24" fill="none" xmlns="http://www.w3.org/2000/svg" github="https://github.com/HRsniper">
<g id="docker-composer">
<g id="cephalopoda">
<g id="skin">
<path d="M16.8618 1.58834L18.5745 2.16055V2.99022C20.385 1.49082 17.3321 0.210204 16.8618 1.58834Z" fill="#B8C9DB"/>
<path d="M15.7916 3.66485C14.3879 3.66485 13.8804 4.90347 14.3879 5.90231C15.9546 6.35642 17.0453 7.3652 17.4971 8.55259C17.7728 8.27665 17.888 8.07197 18.0138 7.68756C17.1891 6.61528 16.1161 5.9759 15.8469 5.48349C15.4154 4.81275 15.5297 4.38146 16.6715 3.95882L15.7916 3.66485Z" fill="#B8C9DB"/>
<path d="M2.71592 11.3697V9.93278C1.82784 10.0076 1.51067 11.8057 3.28684 11.9797C3.12139 11.7628 3.06693 11.6518 2.98407 11.4577L2.71592 11.3697Z" fill="#B8C9DB"/>
<path d="M17.6484 18.7861C20.4817 18.7086 22.0173 17.8949 21.7463 15.5034C21.6495 14.9972 21.4511 14.5813 21.1956 14.2504C20.9535 13.937 20.66 13.6999 20.3529 13.5348C19.2845 12.9605 18.0504 13.2574 18.237 14.2417L18.8917 14.023C19.3678 13.8639 19.8791 14.0926 20.2161 14.5776C20.4462 14.9088 20.5951 15.3593 20.5963 15.8876C20.4456 17.2622 19.0499 17.837 17.5283 17.7679C17.6704 18.1004 17.7088 18.4495 17.6484 18.7861Z" fill="#B8C9DB"/>
<path d="M8.86907 13.3816C8.86907 13.3816 9.94745 14.3577 9.56685 15.3438C8.89551 16.9621 2.52846 18.0435 4.92812 13.8357C4.59273 13.3934 4.45137 13.282 4.23835 13.1977C3.35743 14.3757 2.90623 15.2858 3.09653 16.5618C3.79431 18.6499 6.96603 18.5919 9.37654 17.2578C9.85753 19.4706 9.39729 20.0058 7.21977 19.6359C6.14334 19.4451 5.63391 18.6499 4.36522 18.3019C2.71592 18.3019 1.77836 20.0146 3.09653 21.0859C3.66744 21.55 4.72045 21.2599 4.49209 20.7379C4.36522 20.4479 3.98461 20.4479 3.66744 20.0999C3.28684 19.5199 4.22198 19.1139 4.93613 19.6359C5.33428 19.9865 5.73243 20.2853 6.12371 20.5352C6.58345 20.8288 7.0337 21.0547 7.46332 21.2175C9.8138 22.108 11.5465 21.1068 10.8355 18.9399C10.1805 17.0083 10.3831 16.4035 11.5968 16.0398C11.382 16.2588 11.2177 16.4995 11.1006 16.7525C10.923 17.1358 10.8534 17.5473 10.8794 17.9545C10.9485 19.0354 11.6915 20.0859 12.8782 20.4976L13.7372 20.2159L15.1118 20.6752C16.6073 20.5096 17.4858 19.6926 17.6484 18.7861C17.7088 18.4495 17.6704 18.1004 17.5283 17.7679C17.1783 16.9489 16.199 16.2297 14.5147 16.0398C13.3095 16.0398 13.3095 17.4898 14.5147 17.3738C14.776 17.3487 14.8396 17.1121 14.7831 16.9098C14.7456 16.7756 14.6552 16.6565 14.5345 16.6243C15.294 16.7968 15.7875 17.1244 16.0448 17.5022C16.322 17.909 16.3251 18.374 16.0916 18.7659C15.7888 19.2739 15.0881 19.6592 14.0707 19.6359C13.3175 19.5808 12.7776 19.3104 12.5141 18.7959C12.4199 18.612 12.361 18.397 12.3403 18.1495C12.2969 17.6313 12.4208 16.9708 12.7386 16.1558C12.7386 17.8961 13.5006 18.6447 14.9588 18.7728C15.1368 17.7328 15.0246 17.4183 14.7831 16.9098C14.8396 17.1121 14.776 17.3487 14.5147 17.3738C13.3095 17.4898 13.3095 16.0398 14.5147 16.0398C15.2151 15.5613 15.7908 15.14 16.2909 14.7256C15.1043 14.65 14.5931 14.6934 13.7963 14.8349C13.9915 14.4172 14.3093 14.1221 14.8953 13.7197C17.4567 12.3947 18.1559 10.2838 17.4971 8.55259C17.0453 7.3652 15.9546 6.35642 14.3879 5.90231C13.9393 5.77229 13.4517 5.68775 12.9289 5.65749C11.7172 5.49667 10.4393 5.72121 9.38269 6.2466C9.2724 6.30145 9.16451 6.35957 9.05937 6.42087C8.34056 6.83996 7.74972 7.40776 7.39133 8.09357C7.35991 8.1537 7.33027 8.21473 7.3025 8.27665C6.69633 9.62791 6.9746 11.4013 8.86907 13.3816Z" fill="#B8C9DB"/>
</g>
<g id="eye">
<path d="M12.802 14.0677C11.5967 14.0677 11.5333 12.3277 12.802 12.3277C12.8472 12.3277 12.8907 12.3299 12.9326 12.3342C13.0116 12.3422 13.0847 12.3576 13.1518 12.3793C14.0455 12.6677 13.8831 14.0677 12.802 14.0677Z" fill="white"/>
<path d="M10.7721 13.7336C9.56684 13.7336 9.50341 11.9936 10.7721 11.9936C10.8044 11.9936 10.8358 11.9947 10.8664 11.9969C10.9704 12.0044 11.0645 12.0242 11.1488 12.0542C12.0122 12.3618 11.8423 13.7336 10.7721 13.7336Z" fill="white"/>
</g>
<g id="iris">
<path d="M10.9624 12.4437C11.1025 12.4437 11.2161 12.3398 11.2161 12.2117C11.2161 12.1509 11.1906 12.0956 11.1488 12.0542C11.0645 12.0242 10.9704 12.0044 10.8664 11.9969C10.7738 12.0315 10.7087 12.1146 10.7087 12.2117C10.7087 12.3398 10.8223 12.4437 10.9624 12.4437Z" fill="black"/>
<path d="M12.9923 12.7917C13.1324 12.7917 13.246 12.6878 13.246 12.5597C13.246 12.4868 13.2093 12.4218 13.1518 12.3793C13.0847 12.3576 13.0116 12.3422 12.9326 12.3342C12.8213 12.3587 12.7386 12.4504 12.7386 12.5597C12.7386 12.6878 12.8522 12.7917 12.9923 12.7917Z" fill="black"/>
</g>
<g id="dot">
<path fill-rule="evenodd" clip-rule="evenodd" d="M11.6046 7.24214C12.0294 7.0179 12.2317 6.61123 12.0566 6.33381C11.8814 6.0564 11.3951 6.01328 10.9703 6.23752C10.5455 6.46175 10.3432 6.86842 10.5184 7.14584C10.6935 7.42326 11.1799 7.46637 11.6046 7.24214Z" fill="#99B3D1"/>
<path d="M9.05937 6.42087C8.34056 6.83996 7.74972 7.40777 7.39133 8.09357C7.35991 8.1537 7.33028 8.21473 7.3025 8.27665C7.56943 8.48783 7.91748 8.61559 8.29816 8.61559C9.13897 8.61559 9.82058 7.99235 9.82058 7.22355C9.82058 6.84289 9.65348 6.49791 9.38269 6.24661C9.2724 6.30145 9.16451 6.35957 9.05937 6.42087Z" fill="#99B3D1"/>
<path d="M12.0566 6.33381C12.2317 6.61123 12.0294 7.0179 11.6046 7.24214C11.1799 7.46637 10.6935 7.42326 10.5184 7.14584C10.3432 6.86842 10.5455 6.46175 10.9703 6.23752C11.3951 6.01328 11.8814 6.0564 12.0566 6.33381Z" fill="#99B3D1"/>
<path d="M7.24131 20.1072C6.80028 19.911 6.31849 19.9854 6.1652 20.2735C6.122 20.3546 6.1095 20.4441 6.12371 20.5352C6.58345 20.8288 7.0337 21.0547 7.46332 21.2175C7.59722 21.173 7.70375 21.0941 7.76232 20.984C7.91561 20.696 7.68235 20.3034 7.24131 20.1072Z" fill="#99B3D1"/>
<path d="M11.8291 18.6035C11.8874 18.8542 12.0934 19.0266 12.2892 18.9885C12.3909 18.9688 12.4698 18.8962 12.5141 18.7959C12.4199 18.612 12.361 18.397 12.3403 18.1495C12.2611 18.0905 12.1686 18.0632 12.0782 18.0808C11.8824 18.1188 11.7709 18.3529 11.8291 18.6035Z" fill="#99B3D1"/>
<path d="M11.7849 17.4779C11.8579 17.0994 11.6774 16.7538 11.3816 16.7061C11.2857 16.6907 11.1894 16.7085 11.1006 16.7525C10.923 17.1358 10.8534 17.5473 10.8794 17.9545C10.9448 18.0188 11.0255 18.0622 11.1173 18.077C11.413 18.1247 11.7119 17.8565 11.7849 17.4779Z" fill="#99B3D1"/>
</g>
<g id="shadow">
<path d="M17.4971 8.55259C18.1559 10.2838 17.4567 12.3947 14.8953 13.7197C14.3093 14.1221 13.9915 14.4172 13.7963 14.8348C14.5931 14.6934 15.1043 14.65 16.2909 14.7256C17.3395 13.8567 18.0555 13.0183 18.8917 11.7477C19.2788 9.92353 18.7434 8.63615 18.0138 7.68755C17.888 8.07196 17.7728 8.27665 17.4971 8.55259Z" fill="#8597A9"/>
<path d="M16.0448 17.5022C15.5916 17.3585 15.1604 17.1596 14.7831 16.9098C15.0246 17.4183 15.1368 17.7328 14.9588 18.7728C15.2988 18.8027 15.6767 18.7988 16.0916 18.7659C16.3251 18.374 16.322 17.909 16.0448 17.5022Z" fill="#8597A9"/>
<path d="M5.2533 13.3137C5.64484 12.6409 5.5982 12.3028 5.18987 11.7477L5.063 11.5827L4.22198 11.8637L2.98407 11.4577C3.06693 11.6518 3.12139 11.7628 3.28683 11.9797C3.79431 12.0294 4.49209 12.5597 4.23835 13.1977C4.45137 13.282 4.59273 13.3934 4.92812 13.8357C5.02263 13.67 5.13072 13.4961 5.2533 13.3137Z" fill="#8597A9"/>
</g>
<g id="container">
<path d="M14.5147 1.80132L17.0685 2.6545L18.5745 2.16055L16.8618 1.58834L16.0208 1.30737L14.5147 1.80132Z" fill="#00B4FF"/>
<path d="M17.0685 2.6545L14.5147 1.80132V3.23826L15.7916 3.66485L16.6715 3.95882L17.0685 4.09145V2.6545Z" fill="#00B4FF"/>
<path d="M4.22198 10.4267V11.8637L5.063 11.5827L6.77573 11.0105V9.57354L4.22198 10.4267Z" fill="#00B4FF"/>
<path d="M4.22198 10.4267L6.77573 9.57354L5.26967 9.07959L2.71593 9.93277L4.22198 10.4267Z" fill="#00B4FF"/>
<path d="M19.4463 14.8349V16.2718L20.5963 15.8876C20.5951 15.3593 20.4462 14.9088 20.2161 14.5776L19.4463 14.8349Z" fill="#00B4FF"/>
<path d="M17.9402 14.3409L19.4463 14.8349L20.2161 14.5776C19.8791 14.0926 19.3678 13.8639 18.8917 14.023L18.237 14.2417L17.9402 14.3409Z" fill="#00B4FF"/>
<path d="M22 13.9817L20.4939 13.4877L20.3529 13.5348C20.66 13.6999 20.9535 13.937 21.1956 14.2504L22 13.9817Z" fill="#00B4FF"/>
<path d="M12.2311 20.7099L14.7848 21.5631L16.2909 21.0691L15.1118 20.6752L13.7372 20.2159L12.8782 20.4976L12.2311 20.7099Z" fill="#00B4FF"/>
<path d="M14.7848 23V21.5631L12.2311 20.7099V22.1468L14.7848 23Z" fill="#00B4FF"/>
</g>
<g id="shadow-container">
<path d="M17.0685 4.09145L18.5745 3.5975V2.99022V2.16055L17.0685 2.6545V4.09145Z" fill="#004B77"/>
<path d="M4.22198 11.8637V10.4267L2.71593 9.93278V11.3697L2.98407 11.4577L4.22198 11.8637Z" fill="#004B77"/>
<path d="M19.4463 16.2718V14.8349L17.9402 14.3409V15.7779L19.4463 16.2718Z" fill="#004B77"/>
<path d="M22 15.4186V13.9817L21.1956 14.2504C21.4511 14.5813 21.6495 14.9972 21.7463 15.5034L22 15.4186Z" fill="#004B77"/>
<path d="M14.7848 21.5631V23L16.2909 22.5061V21.0691L14.7848 21.5631Z" fill="#004B77"/>
</g>
<path id="line" d="M17.0685 4.09145L18.5745 3.5975V2.99022M17.0685 4.09145L16.6715 3.95882M17.0685 4.09145V2.6545M17.0685 2.6545L14.5147 1.80132M17.0685 2.6545L18.5745 2.16055M14.5147 1.80132V3.23826L15.7916 3.66485M14.5147 1.80132L16.0208 1.30737L16.8618 1.58834M18.5745 2.16055L16.8618 1.58834M18.5745 2.16055V2.99022M14.7848 23V21.5631M14.7848 23L12.2311 22.1468V20.7099M14.7848 23L16.2909 22.5061V21.0691M14.7848 21.5631L12.2311 20.7099M14.7848 21.5631L16.2909 21.0691M12.2311 20.7099L12.8782 20.4976M16.2909 21.0691L15.1118 20.6752M19.4463 16.2718V14.8349M19.4463 16.2718L17.9402 15.7779V14.3409M19.4463 16.2718L20.5963 15.8876M19.4463 14.8349L17.9402 14.3409M19.4463 14.8349L20.2161 14.5776M22 13.9817V15.4186L21.7463 15.5034M22 13.9817L20.4939 13.4877L20.3529 13.5348M22 13.9817L21.1956 14.2504M17.9402 14.3409L18.237 14.2417M13.6267 15.3438C13.6718 15.1512 13.7262 14.9851 13.7963 14.8349C13.9915 14.4172 14.3093 14.1221 14.8953 13.7197C17.4567 12.3947 18.1559 10.2838 17.4971 8.55259C17.0453 7.3652 15.9546 6.35642 14.3879 5.90231M4.22198 11.8637V10.4267M4.22198 11.8637L5.063 11.5827M4.22198 11.8637L2.98407 11.4577L2.71592 11.3697V9.93278M4.22198 10.4267L6.77573 9.57354M4.22198 10.4267L2.71592 9.93278M6.77573 9.57354V11.0105L5.063 11.5827M6.77573 9.57354L5.26967 9.07959L2.71592 9.93278M2.71592 9.93278C1.82784 10.0076 1.51067 11.8057 3.28684 11.9797C3.79431 12.0294 4.49209 12.5597 4.23835 13.1977C3.35743 14.3757 2.90623 15.2858 3.09653 16.5618C3.79431 18.6499 6.96603 18.5919 9.37654 17.2578M5.063 11.5827L5.18987 11.7477C5.5982 12.3028 5.64484 12.6409 5.2533 13.3137C5.13072 13.4961 5.02263 13.67 4.92812 13.8357C2.52846 18.0435 8.89551 16.9621 9.56685 15.3438C9.94745 14.3577 8.86907 13.3816 8.86907 13.3816C6.9746 11.4013 6.69633 9.62791 7.3025 8.27665M11.5968 15.3438C10.2646 15.0538 9.05937 16.0398 9.37654 17.2578M9.37654 17.2578C9.85753 19.4706 9.39729 20.0058 7.21977 19.6359C6.14334 19.4451 5.63391 18.6499 4.36522 18.3019C2.71592 18.3019 1.77836 20.0146 3.09653 21.0859C3.66744 21.55 4.72045 21.2599 4.49209 20.7379C4.36522 20.4479 3.98461 20.4479 3.66744 20.0999C3.28684 19.5199 4.22198 19.1139 4.93613 19.6359C5.33428 19.9865 5.73243 20.2853 6.12371 20.5352M14.5147 16.0398C13.3095 16.0398 13.3095 17.4898 14.5147 17.3738C14.776 17.3487 14.8396 17.1121 14.7831 16.9098M14.5147 16.0398C16.199 16.2297 17.1783 16.9489 17.5283 17.7679M14.5147 16.0398C15.2151 15.5613 15.7908 15.14 16.2909 14.7256C17.3395 13.8567 18.0555 13.0184 18.8917 11.7477C19.2788 9.92353 18.7434 8.63615 18.0138 7.68756C17.1891 6.61528 16.1161 5.9759 15.8469 5.48349C15.4154 4.81275 15.5297 4.38146 16.6715 3.95882M14.5147 16.6198C14.5214 16.6213 14.528 16.6228 14.5345 16.6243M16.0916 18.7659C15.7888 19.2739 15.0881 19.6592 14.0707 19.6359C13.3175 19.5808 12.7776 19.3104 12.5141 18.7959M16.0916 18.7659C16.3251 18.374 16.322 17.909 16.0448 17.5022M16.0916 18.7659C15.6767 18.7988 15.2988 18.8027 14.9588 18.7728C13.5006 18.6447 12.7386 17.8961 12.7386 16.1558C12.4208 16.9708 12.2969 17.6313 12.3403 18.1495M21.7463 15.5034C22.0173 17.8949 20.4817 18.7086 17.6484 18.7861M21.7463 15.5034C21.6495 14.9972 21.4511 14.5813 21.1956 14.2504M17.6484 18.7861C17.4858 19.6926 16.6073 20.5096 15.1118 20.6752M17.6484 18.7861C17.7088 18.4495 17.6704 18.1004 17.5283 17.7679M12.8782 20.4976L13.7372 20.2159L15.1118 20.6752M12.8782 20.4976C11.6915 20.0859 10.9485 19.0354 10.8794 17.9545M18.237 14.2417L18.8917 14.023C19.3678 13.8639 19.8791 14.0926 20.2161 14.5776M18.237 14.2417C18.0504 13.2574 19.2845 12.9605 20.3529 13.5348M14.7831 16.9098C15.1604 17.1596 15.5916 17.3585 16.0448 17.5022M14.7831 16.9098C14.7456 16.7756 14.6552 16.6565 14.5345 16.6243M20.5963 15.8876C20.4456 17.2622 19.0499 17.837 17.5283 17.7679M20.5963 15.8876C20.5951 15.3593 20.4462 14.9088 20.2161 14.5776M16.0448 17.5022C15.7875 17.1244 15.294 16.7968 14.5345 16.6243M20.3529 13.5348C20.66 13.6999 20.9535 13.937 21.1956 14.2504M14.3879 5.90231C13.9393 5.77229 13.4517 5.68775 12.9289 5.65749C11.7172 5.49667 10.4393 5.72121 9.38269 6.2466M14.3879 5.90231C13.8804 4.90347 14.3879 3.66485 15.7916 3.66485M15.7916 3.66485L16.6715 3.95882M16.8618 1.58834C17.3321 0.210204 20.385 1.49082 18.5745 2.99022M12.9326 12.3342C12.8907 12.3299 12.8472 12.3277 12.802 12.3277C11.5333 12.3277 11.5967 14.0677 12.802 14.0677C13.8831 14.0677 14.0455 12.6677 13.1518 12.3793M12.9326 12.3342C13.0116 12.3422 13.0847 12.3576 13.1518 12.3793M12.9326 12.3342C12.8213 12.3587 12.7386 12.4504 12.7386 12.5597C12.7386 12.6878 12.8522 12.7917 12.9923 12.7917C13.1324 12.7917 13.246 12.6878 13.246 12.5597C13.246 12.4868 13.2093 12.4218 13.1518 12.3793M10.8664 11.9969C10.8358 11.9947 10.8044 11.9936 10.7721 11.9936C9.50341 11.9936 9.56685 13.7336 10.7721 13.7336C11.8423 13.7336 12.0122 12.3618 11.1488 12.0542M10.8664 11.9969C10.9704 12.0044 11.0645 12.0242 11.1488 12.0542M10.8664 11.9969C10.7738 12.0315 10.7087 12.1146 10.7087 12.2117C10.7087 12.3398 10.8223 12.4437 10.9624 12.4437C11.1025 12.4437 11.2161 12.3398 11.2161 12.2117C11.2161 12.1509 11.1906 12.0956 11.1488 12.0542M7.46332 21.2175C7.59721 21.173 7.70375 21.0941 7.76232 20.984C7.91561 20.696 7.68235 20.3034 7.24131 20.1072C6.80028 19.911 6.31849 19.9854 6.1652 20.2735C6.122 20.3546 6.1095 20.4441 6.12371 20.5352M7.46332 21.2175C9.8138 22.108 11.5465 21.1068 10.8355 18.9399C10.1805 17.0083 10.3831 16.4035 11.5968 16.0398C11.382 16.2588 11.2177 16.4995 11.1006 16.7525M7.46332 21.2175C7.0337 21.0547 6.58345 20.8288 6.12371 20.5352M12.5141 18.7959C12.4698 18.8962 12.3909 18.9688 12.2892 18.9885C12.0934 19.0266 11.8874 18.8542 11.8291 18.6035C11.7709 18.3529 11.8824 18.1188 12.0782 18.0808C12.1686 18.0632 12.2611 18.0905 12.3403 18.1495M12.5141 18.7959C12.4199 18.612 12.361 18.397 12.3403 18.1495M10.8794 17.9545C10.9448 18.0188 11.0255 18.0622 11.1173 18.077C11.413 18.1247 11.7119 17.8565 11.7849 17.4779C11.8579 17.0994 11.6774 16.7538 11.3816 16.7061C11.2857 16.6907 11.1894 16.7085 11.1006 16.7525M10.8794 17.9545C10.8534 17.5473 10.923 17.1358 11.1006 16.7525M7.3025 8.27665C7.56943 8.48783 7.91747 8.61558 8.29816 8.61558C9.13897 8.61558 9.82058 7.99235 9.82058 7.22354C9.82058 6.84288 9.65348 6.49791 9.38269 6.2466M7.3025 8.27665C7.33027 8.21473 7.35991 8.1537 7.39133 8.09357C7.74972 7.40776 8.34056 6.83996 9.05937 6.42087C9.16451 6.35957 9.2724 6.30145 9.38269 6.2466M12.0566 6.33381C12.2317 6.61123 12.0294 7.0179 11.6046 7.24213C11.1799 7.46637 10.6935 7.42325 10.5184 7.14584C10.3432 6.86842 10.5455 6.46175 10.9703 6.23751C11.3951 6.01328 11.8814 6.05639 12.0566 6.33381Z" stroke="black" stroke-width="0.1"/>
</g>
</g>
</svg>
