<svg viewBox="0 0 24 24" fill="none" xmlns="http://www.w3.org/2000/svg" github="https://github.com/HRsniper">
<g id="sql-lang">
<g id="database">
<path id="3-r" d="M11.9883 14.9916V18.9548C15.8867 18.9548 18.9766 18.0637 18.9766 16.2814L18.9842 12.3948C18.977 14.1728 15.8821 14.9916 11.9883 14.9916Z" fill="#FFC107"/>
<path id="3-l" d="M11.9883 18.9548V14.9916C8.0899 14.9916 5.00766 14.1709 5.00766 12.3886L5 16.2814C5 18.0637 8.0899 18.9548 11.9883 18.9548Z" fill="#DEA806"/>
<path id="2-r" d="M11.9883 10.9347V14.9916C15.8821 14.9916 18.977 14.1728 18.9842 12.3948C18.9842 12.3927 18.9842 12.3907 18.9842 12.3886L18.9923 8.2671C18.9856 10.0455 15.8824 10.9347 11.9883 10.9347Z" fill="#FFD54F"/>
<path id="2-l" d="M11.9883 14.9916V10.9347C8.09347 10.9347 5.02138 10.0452 5.0158 8.26616L5.00769 12.3886C5.00769 14.1709 8.08993 14.9916 11.9883 14.9916Z" fill="#DEB945"/>
<path id="1-r" d="M11.9883 7.04188V10.9347C15.8824 10.9347 18.9856 10.0455 18.9923 8.26711C18.9923 8.26518 18.9924 8.26325 18.9924 8.26131L19 4.37453C18.993 6.15277 15.8823 7.04188 11.9883 7.04188Z" fill="#FFC107"/>
<path id="1-l" d="M11.9883 10.9347V7.04188C8.08988 7.04188 5.02342 6.15076 5.02342 4.36852L5.01575 8.26617C5.02134 10.0452 8.09342 10.9347 11.9883 10.9347Z" fill="#DEA806"/>
<path id="top-r" d="M11.9883 2V7.04188C15.8823 7.04188 18.993 6.15276 19 4.37453C19 4.37252 19 4.37052 19 4.36851C19 2.94386 15.8867 2 11.9883 2Z" fill="#FFD54F"/>
<path id="top-l" d="M11.9883 7.04188V2C8.08989 2 5.02344 2.94386 5.02344 4.36851C5.02344 6.15076 8.08989 7.04188 11.9883 7.04188Z" fill="#DEB945"/>
</g>
<g id="sql">
<g id="sql-botton">
<path d="M6.97005 21.91C7.59672 21.4767 7.91005 20.92 7.91005 20.24C7.91005 19.7013 7.77873 19.2713 7.51608 18.95L1.91029 18.95C2.3273 19.4321 3.04055 19.717 4.05005 19.85C4.55005 19.9167 4.89005 19.9833 5.07005 20.05C5.25005 20.11 5.34005 20.2 5.34005 20.32C5.34005 20.5067 5.09005 20.6 4.59005 20.6C4.29005 20.6 4.05338 20.5333 3.88005 20.4C3.71338 20.2667 3.56005 20.2 3.42005 20.2H1.52005C1.46005 20.2 1.40672 20.2233 1.36005 20.27C1.32005 20.31 1.30005 20.36 1.30005 20.42C1.30005 21.0133 1.58672 21.5167 2.16005 21.93C2.73338 22.3433 3.52338 22.55 4.53005 22.55C5.53672 22.55 6.35005 22.3367 6.97005 21.91Z" fill="#1D83D4"/>
<path d="M14.6271 21.66C15.1004 21.1733 15.3371 20.5367 15.3371 19.75V18.95H12.7371V19.79C12.7371 20.0633 12.6704 20.2667 12.5371 20.4C12.4037 20.5333 12.2237 20.6 11.9971 20.6C11.7704 20.6 11.5904 20.5333 11.4571 20.4C11.3237 20.2667 11.2571 20.0633 11.2571 19.79V18.95L8.65708 18.95V19.75C8.65708 20.6633 8.95708 21.36 9.55708 21.84C10.1637 22.3133 10.9771 22.55 11.9971 22.55C12.1904 22.55 12.3837 22.54 12.5771 22.52L12.8571 22.87C12.9704 23.0233 13.1104 23.1 13.2771 23.1H15.2371C15.2971 23.1 15.3437 23.08 15.3771 23.04C15.4171 23 15.4371 22.9567 15.4371 22.91C15.4371 22.87 15.4271 22.83 15.4071 22.79L14.6271 21.66Z" fill="#1D83D4"/>
<path d="M21.8526 20.4H19.0826V18.95H16.5426V22.18C16.5426 22.2533 16.5693 22.3167 16.6226 22.37C16.676 22.4233 16.7393 22.45 16.8126 22.45H21.8526C21.926 22.45 21.9893 22.4233 22.0426 22.37C22.096 22.3167 22.1226 22.2533 22.1226 22.18V20.67C22.1226 20.5967 22.096 20.5333 22.0426 20.48C21.9893 20.4267 21.926 20.4 21.8526 20.4Z" fill="#1D83D4"/>
</g>
<g id="sql-top">
<path d="M2.31009 15.99C1.75009 16.4167 1.47009 16.97 1.47009 17.65C1.47009 18.1529 1.61152 18.6138 1.89439 18.95L7.51612 18.95C7.44401 18.8618 7.362 18.7818 7.27009 18.71C6.85009 18.37 6.14343 18.1367 5.15009 18.01C4.72343 17.9567 4.43009 17.8967 4.27009 17.83C4.11676 17.7633 4.04009 17.68 4.04009 17.58C4.04009 17.3933 4.20009 17.3 4.52009 17.3C4.73343 17.3 4.90343 17.3567 5.03009 17.47C5.15676 17.5833 5.29676 17.64 5.45009 17.64H7.45009C7.50343 17.64 7.55009 17.62 7.59009 17.58C7.63676 17.5333 7.66009 17.48 7.66009 17.42C7.66009 16.9333 7.36676 16.4667 6.78009 16.02C6.20009 15.5733 5.45009 15.35 4.53009 15.35C3.61676 15.35 2.87676 15.5633 2.31009 15.99Z" fill="#2196F3"/>
<path d="M11.9971 15.35C10.9905 15.35 10.1805 15.5967 9.56712 16.09C8.96046 16.5833 8.65712 17.2833 8.65712 18.19V18.95L11.2571 18.95V18.11C11.2571 17.8433 11.3238 17.6433 11.4571 17.51C11.5905 17.37 11.7705 17.3 11.9971 17.3C12.2238 17.3 12.4038 17.37 12.5371 17.51C12.6705 17.6433 12.7371 17.8433 12.7371 18.11V18.95H15.3371V18.19C15.3371 17.29 15.0305 16.5933 14.4171 16.1C13.8105 15.6 13.0038 15.35 11.9971 15.35Z" fill="#2196F3"/>
<path d="M16.6227 15.53C16.5693 15.5833 16.5427 15.6467 16.5427 15.72V18.95L19.0827 18.95V15.72C19.0827 15.6467 19.056 15.5833 19.0027 15.53C18.9493 15.4767 18.886 15.45 18.8127 15.45H16.8127C16.7393 15.45 16.676 15.4767 16.6227 15.53Z" fill="#2196F3"/>
</g>
</g>
</g>
</svg>
